<?xml version="1.0"?><svg xmlns="http://www.w3.org/2000/svg" xmlns:xlink="http://www.w3.org/1999/xlink" viewBox="180.65 181.44 52.46 49.99" preserveAspectRatio="xMidYMid" width="100%" height="100%"><clipPath id="62"><rect x="0.5" y="0.5" width="522.2" height="768.8" /></clipPath><g id="drawing"><rect x="180.65" y="181.44" width="100%" height="100%" fill="rgb(255, 255, 255)" /><g id="page" clip-path="url(#62)"><g id="Solid"><path d="M181.15 231.43 L181.15 231.43 L180.9 231 L180.65 230.57 L206.88 215.42 L206.88 216 L206.88 216.58 Z" stroke="rgb(0, 0, 0)" stroke-width="0" fill-rule="evenodd" stroke-linejoin="miter" fill="rgb(0, 0, 0)" shape-rendering="geometricPrecision" /></g><g id="Solid"><path d="M206.88 216.58 L206.88 216.58 L206.88 216 L206.88 215.42 L233.11 230.57 L232.86 231 L232.61 231.43 Z" stroke="rgb(0, 0, 0)" stroke-width="0" fill-rule="evenodd" stroke-linejoin="miter" fill="rgb(0, 0, 0)" shape-rendering="geometricPrecision" /></g><g><text xml:space="preserve" text-anchor="start" text-rendering="geometricPrecision"><tspan x="202.98" y="189.9" font-family="Arial" font-size="10" fill="rgb(0, 0, 0)">O</tspan></text></g><g id="Solid"><line x1="205.08" y1="216" x2="205.08" y2="192.1" stroke="rgb(0, 0, 0)" stroke-width="1" shape-rendering="auto" /><path d="M208.18 216.17 L208.18 216.17 L209.18 216.75 L209.18 192.1 L208.18 192.1 Z" stroke="rgb(0, 0, 0)" stroke-width="0" fill-rule="evenodd" stroke-linejoin="miter" fill="rgb(0, 0, 0)" shape-rendering="geometricPrecision" /><path d="M204.58 216.75 L204.58 216.75 L205.58 216.17 L205.58 192.1 L204.58 192.1 Z" stroke="rgb(0, 0, 0)" stroke-width="0" fill-rule="evenodd" stroke-linejoin="miter" fill="rgb(0, 0, 0)" shape-rendering="geometricPrecision" /></g></g></g></svg>