<?xml version="1.0"?><svg xmlns="http://www.w3.org/2000/svg" xmlns:xlink="http://www.w3.org/1999/xlink" viewBox="112.25 320.04 104.42 94.99" preserveAspectRatio="xMidYMid" width="100%" height="100%"><clipPath id="200"><rect x="0.5" y="0.5" width="522.2" height="768.8" /></clipPath><g id="drawing"><rect x="112.25" y="320.04" width="100%" height="100%" fill="rgb(255, 255, 255)" /><g id="page" clip-path="url(#200)"><g id="Solid"><path d="M112.75 370.03 L112.75 370.03 L112.5 369.6 L112.25 369.17 L138.48 354.02 L138.48 354.6 L138.48 355.18 Z" stroke="rgb(0, 0, 0)" stroke-width="0" fill-rule="evenodd" stroke-linejoin="miter" fill="rgb(0, 0, 0)" shape-rendering="geometricPrecision" /></g><g><text xml:space="preserve" text-anchor="start" text-rendering="geometricPrecision"><tspan x="160.86" y="373.5" font-family="Arial" font-size="10" fill="rgb(0, 0, 0)">N</tspan></text></g><g id="Solid"><path d="M138.48 355.18 L138.48 355.18 L138.48 354.6 L138.48 354.02 L160.22 366.57 L159.97 367.01 L159.72 367.44 Z" stroke="rgb(0, 0, 0)" stroke-width="0" fill-rule="evenodd" stroke-linejoin="miter" fill="rgb(0, 0, 0)" shape-rendering="geometricPrecision" /></g><g id="Solid"><path d="M163.96 375.5 L163.96 375.5 L164.46 375.5 L164.96 375.5 L164.96 399.89 L164.46 399.6 L163.96 399.31 Z" stroke="rgb(0, 0, 0)" stroke-width="0" fill-rule="evenodd" stroke-linejoin="miter" fill="rgb(0, 0, 0)" shape-rendering="geometricPrecision" /></g><g id="Solid"><path d="M163.96 399.31 L163.96 399.31 L164.46 399.6 L164.96 399.89 L138.73 415.03 L138.48 414.6 L138.23 414.17 Z" stroke="rgb(0, 0, 0)" stroke-width="0" fill-rule="evenodd" stroke-linejoin="miter" fill="rgb(0, 0, 0)" shape-rendering="geometricPrecision" /></g><g id="Solid"><path d="M169.28 367.39 L169.28 367.39 L169.03 366.96 L168.78 366.53 L190.44 354.02 L190.44 354.6 L190.44 355.18 Z" stroke="rgb(0, 0, 0)" stroke-width="0" fill-rule="evenodd" stroke-linejoin="miter" fill="rgb(0, 0, 0)" shape-rendering="geometricPrecision" /></g><g><text xml:space="preserve" text-anchor="start" text-rendering="geometricPrecision"><tspan x="186.54" y="328.5" font-family="Arial" font-size="10" fill="rgb(0, 0, 0)">O</tspan></text></g><g id="Solid"><line x1="188.64" y1="354.6" x2="188.64" y2="330.7" stroke="rgb(0, 0, 0)" stroke-width="1" shape-rendering="auto" /><path d="M191.74 354.77 L191.74 354.77 L192.74 355.35 L192.74 330.7 L191.74 330.7 Z" stroke="rgb(0, 0, 0)" stroke-width="0" fill-rule="evenodd" stroke-linejoin="miter" fill="rgb(0, 0, 0)" shape-rendering="geometricPrecision" /><path d="M188.14 355.35 L188.14 355.35 L189.14 354.77 L189.14 330.7 L188.14 330.7 Z" stroke="rgb(0, 0, 0)" stroke-width="0" fill-rule="evenodd" stroke-linejoin="miter" fill="rgb(0, 0, 0)" shape-rendering="geometricPrecision" /></g><g id="Solid"><path d="M190.44 355.18 L190.44 355.18 L190.44 354.6 L190.44 354.02 L216.67 369.17 L216.42 369.6 L216.17 370.03 Z" stroke="rgb(0, 0, 0)" stroke-width="0" fill-rule="evenodd" stroke-linejoin="miter" fill="rgb(0, 0, 0)" shape-rendering="geometricPrecision" /></g></g></g></svg>