<?xml version="1.0"?><svg xmlns="http://www.w3.org/2000/svg" xmlns:xlink="http://www.w3.org/1999/xlink" viewBox="291.22 108.62 52.96 61.16" preserveAspectRatio="xMidYMid" width="100%" height="100%"><clipPath id="53"><rect x="0.5" y="0.5" width="522.2" height="768.8" /></clipPath><g id="drawing"><rect x="291.22" y="108.62" width="100%" height="100%" fill="rgb(255, 255, 255)" /><g id="page" clip-path="url(#53)"><g id="Solid"><path d="M291.22 123.91 L291.22 123.91 L291.72 124.2 L292.22 124.49 L292.22 153.91 L291.72 154.2 L291.22 154.49 Z" stroke="rgb(0, 0, 0)" stroke-width="0" fill-rule="evenodd" stroke-linejoin="miter" fill="rgb(0, 0, 0)" shape-rendering="geometricPrecision" /><line x1="295.32" y1="126.28" x2="295.32" y2="152.12" stroke="rgb(0, 0, 0)" stroke-width="1" shape-rendering="auto" /></g><g id="Solid"><path d="M291.22 154.49 L291.22 154.49 L291.72 154.2 L292.22 153.91 L317.7 168.62 L317.7 169.2 L317.7 169.78 Z" stroke="rgb(0, 0, 0)" stroke-width="0" fill-rule="evenodd" stroke-linejoin="miter" fill="rgb(0, 0, 0)" shape-rendering="geometricPrecision" /></g><g id="Solid"><path d="M317.7 169.78 L317.7 169.78 L317.7 169.2 L317.7 168.62 L343.18 153.91 L343.68 154.2 L344.18 154.49 Z" stroke="rgb(0, 0, 0)" stroke-width="0" fill-rule="evenodd" stroke-linejoin="miter" fill="rgb(0, 0, 0)" shape-rendering="geometricPrecision" /><line x1="317.7" y1="165.04" x2="340.08" y2="152.12" stroke="rgb(0, 0, 0)" stroke-width="1" shape-rendering="auto" /></g><g id="Solid"><path d="M344.18 154.49 L344.18 154.49 L343.68 154.2 L343.18 153.91 L343.18 124.49 L343.68 124.2 L344.18 123.91 Z" stroke="rgb(0, 0, 0)" stroke-width="0" fill-rule="evenodd" stroke-linejoin="miter" fill="rgb(0, 0, 0)" shape-rendering="geometricPrecision" /></g><g id="Solid"><path d="M344.18 123.91 L344.18 123.91 L343.68 124.2 L343.18 124.49 L317.7 109.78 L317.7 109.2 L317.7 108.62 Z" stroke="rgb(0, 0, 0)" stroke-width="0" fill-rule="evenodd" stroke-linejoin="miter" fill="rgb(0, 0, 0)" shape-rendering="geometricPrecision" /><line x1="340.08" y1="126.28" x2="317.7" y2="113.36" stroke="rgb(0, 0, 0)" stroke-width="1" shape-rendering="auto" /></g><g id="Solid"><path d="M317.7 108.62 L317.7 108.62 L317.7 109.2 L317.7 109.78 L292.22 124.49 L291.72 124.2 L291.22 123.91 Z" stroke="rgb(0, 0, 0)" stroke-width="0" fill-rule="evenodd" stroke-linejoin="miter" fill="rgb(0, 0, 0)" shape-rendering="geometricPrecision" /></g></g></g></svg>