<?xml version="1.0"?><svg xmlns="http://www.w3.org/2000/svg" xmlns:xlink="http://www.w3.org/1999/xlink" viewBox="217.4 201.61 53.36 57.01" preserveAspectRatio="xMidYMid" width="100%" height="100%"><clipPath id="83"><rect x="0.5" y="0.5" width="522.2" height="768.8" /></clipPath><g id="drawing"><rect x="217.4" y="201.61" width="100%" height="100%" fill="rgb(255, 255, 255)" /><g id="page" clip-path="url(#83)"><g id="Solid"><path d="M218.82 258.62 L218.82 258.62 L218.11 257.39 L217.4 256.16 L244.08 240.76 L244.08 242.39 L244.08 244.02 Z" stroke="rgb(0, 0, 0)" stroke-width="0" fill-rule="evenodd" stroke-linejoin="miter" fill="rgb(0, 0, 0)" shape-rendering="geometricPrecision" /></g><g id="Solid"><path d="M244.08 244.02 L244.08 244.02 L244.08 242.39 L244.08 240.76 L270.76 256.16 L270.05 257.39 L269.34 258.62 Z" stroke="rgb(0, 0, 0)" stroke-width="0" fill-rule="evenodd" stroke-linejoin="miter" fill="rgb(0, 0, 0)" shape-rendering="geometricPrecision" /></g><g><text xml:space="preserve" text-anchor="start" text-rendering="geometricPrecision"><tspan x="234.76" y="221.85" font-family="Arial" font-size="24" fill="rgb(0, 0, 0)">O</tspan></text></g><g id="Solid"><line x1="240.54" y1="242.39" x2="240.54" y2="224.21" stroke="rgb(0, 0, 0)" stroke-width="2.83" shape-rendering="auto" /><path d="M246.2 241.98 L246.2 241.98 L249.03 243.62 L249.03 224.21 L246.2 224.21 Z" stroke="rgb(0, 0, 0)" stroke-width="0" fill-rule="evenodd" stroke-linejoin="miter" fill="rgb(0, 0, 0)" shape-rendering="geometricPrecision" /><path d="M239.13 243.62 L239.13 243.62 L241.96 241.98 L241.96 224.21 L239.13 224.21 Z" stroke="rgb(0, 0, 0)" stroke-width="0" fill-rule="evenodd" stroke-linejoin="miter" fill="rgb(0, 0, 0)" shape-rendering="geometricPrecision" /></g></g></g></svg>