<?xml version="1.0"?><svg xmlns="http://www.w3.org/2000/svg" xmlns:xlink="http://www.w3.org/1999/xlink" viewBox="231.51 129.77 54.78 63.25" preserveAspectRatio="xMidYMid" width="100%" height="100%"><clipPath id="70"><rect x="0.5" y="0.5" width="522.2" height="768.8" /></clipPath><g id="drawing"><rect x="231.51" y="129.77" width="100%" height="100%" fill="rgb(255, 255, 255)" /><g id="page" clip-path="url(#70)"><g id="Solid"><path d="M231.51 145.58 L231.51 145.58 L232.93 146.4 L234.35 147.22 L234.35 175.57 L232.93 176.39 L231.51 177.21 Z" stroke="rgb(0, 0, 0)" stroke-width="0" fill-rule="evenodd" stroke-linejoin="miter" fill="rgb(0, 0, 0)" shape-rendering="geometricPrecision" /><line x1="240.01" y1="150.48" x2="240.01" y2="172.3" stroke="rgb(0, 0, 0)" stroke-width="2.83" shape-rendering="auto" /></g><g id="Solid"><path d="M231.51 177.21 L231.51 177.21 L232.93 176.39 L234.35 175.57 L258.9 189.75 L258.9 191.38 L258.9 193.01 Z" stroke="rgb(0, 0, 0)" stroke-width="0" fill-rule="evenodd" stroke-linejoin="miter" fill="rgb(0, 0, 0)" shape-rendering="geometricPrecision" /></g><g id="Solid"><path d="M258.9 193.01 L258.9 193.01 L258.9 191.38 L258.9 189.75 L283.46 175.57 L284.87 176.39 L286.28 177.21 Z" stroke="rgb(0, 0, 0)" stroke-width="0" fill-rule="evenodd" stroke-linejoin="miter" fill="rgb(0, 0, 0)" shape-rendering="geometricPrecision" /><line x1="258.9" y1="183.21" x2="277.8" y2="172.3" stroke="rgb(0, 0, 0)" stroke-width="2.83" shape-rendering="auto" /></g><g id="Solid"><path d="M286.28 177.21 L286.28 177.21 L284.87 176.39 L283.46 175.57 L283.46 147.22 L284.87 146.4 L286.28 145.58 Z" stroke="rgb(0, 0, 0)" stroke-width="0" fill-rule="evenodd" stroke-linejoin="miter" fill="rgb(0, 0, 0)" shape-rendering="geometricPrecision" /></g><g id="Solid"><path d="M286.28 145.58 L286.28 145.58 L284.87 146.4 L283.46 147.22 L258.9 133.03 L258.9 131.4 L258.9 129.77 Z" stroke="rgb(0, 0, 0)" stroke-width="0" fill-rule="evenodd" stroke-linejoin="miter" fill="rgb(0, 0, 0)" shape-rendering="geometricPrecision" /><line x1="277.8" y1="150.48" x2="258.9" y2="139.57" stroke="rgb(0, 0, 0)" stroke-width="2.83" shape-rendering="auto" /></g><g id="Solid"><path d="M258.9 129.77 L258.9 129.77 L258.9 131.4 L258.9 133.03 L234.35 147.22 L232.93 146.4 L231.51 145.58 Z" stroke="rgb(0, 0, 0)" stroke-width="0" fill-rule="evenodd" stroke-linejoin="miter" fill="rgb(0, 0, 0)" shape-rendering="geometricPrecision" /></g></g></g></svg>