<svg version="1" xmlns="http://www.w3.org/2000/svg" width="786.667" height="786.667" viewBox="0 0 590.000000 590.000000"><path d="M281.8 2.5c-.2.1-4.8.5-10.3.8-15.2.9-28.9 3-44.5 6.8-4.7 1.1-9.2 2.2-10 2.4-4.6 1-25.4 8.2-33.7 11.7C136.2 43.8 97.1 73.4 64 114.6c-7.5 9.3-14.5 19.7-23.4 34.7-2.3 3.9-10.6 20.4-13.6 27.1-5.6 12.4-15.1 40.7-16.6 49-.3 1.7-.9 4.7-1.4 6.6-.5 1.9-1.2 5-1.5 6.7-1.2 7.4-1.5 9.1-2.4 15.3-3.6 24.2-3.4 63.2.4 83.1.2.9.7 3.9 1 6.6 1.1 7.9 6.1 28.1 9.6 38.8 1.8 5.5 3.3 10.2 3.4 10.5.1.3.5 1.4 1 2.5.4 1.1 1.9 4.9 3.3 8.5 3.5 9.2 14 30 20.7 41.1 25.5 42.2 63.9 79.3 106.9 103.3 11.9 6.6 18 9.6 33.1 16.1 17.5 7.6 50.2 16 73.5 18.9 21.7 2.8 51.2 2.8 73.5 0 95.2-11.9 180.1-72.5 223.6-159.4 11.5-23.1 22-54.1 25.4-75 .3-1.9 1-6 1.5-9 4.7-26.4 4.6-67.6 0-92.5-.6-2.8-1.3-6.8-1.6-9C578.5 225.7 566 185 564 185c-.7 0-40.7 25.4-68.5 43.5-26.5 17.2-68.2 43.8-71.9 45.9-27.3 15.2-61.7.7-71.1-30.1-1.5-4.7-2.1-17.4-1.1-22.2 2-9.5 8.2-20.7 14.7-26.7 2.9-2.8 13.6-9.9 32.4-21.9 2.8-1.8 10.2-6.6 16.5-10.6 13.5-8.8 38.6-24.9 57.3-36.9 7.3-4.7 17.8-11.4 23.3-15 5.4-3.6 10.4-6.7 10.9-6.9.6-.2 2.1-1.2 3.4-2.2l2.4-1.9-11.4-11.4c-10.9-10.8-23.2-21.8-29.3-26.1-1.5-1.1-4.7-3.4-7-5.1-15.8-11.8-41.9-26.3-60.4-33.5-4.3-1.6-8.6-3.4-9.7-3.9-3.8-1.7-23.9-7.7-26.7-8-.4-.1-2.9-.7-5.5-1.5-6.1-1.8-25.4-5.4-32.4-6-3-.3-7.2-.8-9.4-1-4.6-.6-38.2-1.5-38.7-1z"/></svg>